<svg xmlns="http://www.w3.org/2000/svg" width="24" height="24" viewBox="0 0 24 24" fill="none">
  <path d="M7.79199 21.25H16.208C17.1363 21.25 18.0265 20.8813 18.6829 20.2249C19.3392 19.5685 19.708 18.6783 19.708 17.75V12.22C19.7083 11.2919 19.34 10.4016 18.684 9.745L12.715 3.775C12.39 3.45 12.0041 3.19221 11.5794 3.01634C11.1548 2.84047 10.6996 2.74997 10.24 2.75H7.79199C6.86373 2.75 5.9735 3.11875 5.31712 3.77513C4.66074 4.4315 4.29199 5.32174 4.29199 6.25V17.75C4.29199 18.6783 4.66074 19.5685 5.31712 20.2249C5.9735 20.8813 6.86373 21.25 7.79199 21.25Z" stroke="#444444" stroke-width="1.5" stroke-linecap="round" stroke-linejoin="round"/>
  <path fill-rule="evenodd" clip-rule="evenodd" d="M10.4368 7.14095C10.1978 7.21895 10.0448 7.37695 10.0008 7.55195C9.91079 7.90395 10.0008 8.28195 10.2538 8.75495C10.3798 8.98895 10.5338 9.22595 10.7038 9.47995L10.7958 9.61695L10.9408 9.83195L10.9598 9.76395L11.0458 9.45795C11.1445 9.12262 11.2211 8.78262 11.2758 8.43795C11.3648 7.79595 11.2648 7.41995 10.9668 7.17795C10.8868 7.11295 10.6888 7.05895 10.4368 7.14095ZM10.4918 11.293L10.2218 10.931L10.1898 10.883C10.0748 10.693 9.94679 10.503 9.80779 10.298L9.70779 10.149C9.52378 9.88143 9.35291 9.6051 9.19579 9.32095C8.88579 8.74295 8.63779 8.03495 8.83779 7.25395C9.00779 6.58995 9.53579 6.17295 10.0648 5.99995C10.5818 5.83195 11.2388 5.85295 11.7248 6.24695C12.5168 6.89095 12.5728 7.81995 12.4638 8.60395C12.4031 9.00067 12.3159 9.39288 12.2028 9.77795L12.1068 10.118C12.0321 10.3726 11.9628 10.629 11.8988 10.887L11.8318 11.081L13.2238 12.945C13.8738 12.867 14.5878 12.82 15.2538 12.868C16.0228 12.922 16.8488 13.11 17.4118 13.644C17.5929 13.8319 17.724 14.0623 17.793 14.3141C17.862 14.5658 17.8668 14.8309 17.8068 15.085C17.6898 15.565 17.3528 15.965 16.8878 16.208C15.9028 16.723 14.9858 16.313 14.3048 15.792C13.7718 15.385 13.2598 14.817 12.8288 14.339L12.7248 14.225C12.3548 14.282 12.0048 14.346 11.7208 14.4C11.4158 14.457 11.0368 14.528 10.6248 14.62L10.4738 15.063C10.3905 15.255 10.3111 15.4483 10.2358 15.643L10.1138 15.946C9.99067 16.2579 9.84805 16.5619 9.68679 16.856C9.35679 17.434 8.82979 18.048 7.94579 18.097C6.76179 18.163 5.95979 17.112 6.18979 15.989L6.19579 15.962C6.39579 15.171 7.08979 14.652 7.76079 14.309C8.35779 14.003 9.05479 13.777 9.70179 13.608L10.4918 11.293ZM11.3618 12.458L11.0748 13.301L11.4958 13.221L11.4998 13.22L11.8798 13.15L11.3618 12.458ZM14.2018 14.062C14.4758 14.352 14.7488 14.622 15.0328 14.839C15.5828 15.259 15.9728 15.332 16.3318 15.144C16.5318 15.039 16.6158 14.903 16.6408 14.802C16.6529 14.7478 16.652 14.6915 16.6381 14.6378C16.6242 14.5841 16.5977 14.5344 16.5608 14.493C16.3038 14.265 15.8388 14.113 15.1688 14.065C14.8468 14.0445 14.5239 14.0435 14.2018 14.062ZM9.19679 15.009C8.87879 15.118 8.57679 15.239 8.30679 15.377C7.71979 15.677 7.43679 15.981 7.36279 16.244C7.28479 16.659 7.55479 16.917 7.87879 16.899C8.14879 16.884 8.38479 16.715 8.64479 16.26C8.78079 16.012 8.90012 15.7563 9.00279 15.493L9.10979 15.227L9.19679 15.009Z" fill="#444444"/>
</svg>