<svg xmlns="http://www.w3.org/2000/svg" width="24" height="24" viewBox="0 0 24 24" fill="none">
  <path fill-rule="evenodd" clip-rule="evenodd" d="M21 6.75V16.5H19.5V6.75H16.5C15.9033 6.75 15.331 6.51295 14.909 6.09099C14.4871 5.66903 14.25 5.09674 14.25 4.5V1.5H6C5.60218 1.5 5.22064 1.65804 4.93934 1.93934C4.65804 2.22064 4.5 2.60218 4.5 3V16.5H3V3C3 2.20435 3.31607 1.44129 3.87868 0.87868C4.44129 0.316071 5.20435 0 6 0L14.25 0L21 6.75ZM2.25 17.775H4.65C5.084 17.775 5.45 17.8645 5.748 18.0435C6.05 18.2185 6.28 18.457 6.438 18.759C6.596 19.061 6.675 19.3995 6.675 19.7745C6.675 20.1495 6.595 20.488 6.435 20.79C6.276 21.089 6.044 21.326 5.739 21.501C5.4022 21.6826 5.02345 21.7721 4.641 21.7605H3.435V23.7735H2.25V17.775ZM5.34 20.346C5.42904 20.169 5.47284 19.9726 5.4675 19.7745C5.4675 19.4345 5.375 19.174 5.19 18.993C5.005 18.811 4.7485 18.72 4.4205 18.72H3.432V20.829H4.422C4.6162 20.834 4.80871 20.7918 4.983 20.706C5.13566 20.6249 5.26013 20.4993 5.34 20.346ZM7.293 17.775H9.693C10.127 17.775 10.493 17.8645 10.791 18.0435C11.093 18.2185 11.323 18.457 11.481 18.759C11.639 19.061 11.718 19.3995 11.718 19.7745C11.718 20.1495 11.638 20.488 11.478 20.79C11.32 21.089 11.088 21.326 10.782 21.501C10.4452 21.6826 10.0665 21.7721 9.684 21.7605H8.4795V23.7735H7.2945L7.293 17.775ZM10.383 20.346C10.472 20.169 10.5158 19.9726 10.5105 19.7745C10.5105 19.4345 10.418 19.174 10.233 18.993C10.049 18.811 9.7925 18.72 9.4635 18.72H8.475V20.829H9.465C9.6592 20.834 9.85171 20.7918 10.026 20.706C10.1787 20.6249 10.3031 20.4993 10.383 20.346ZM14.661 23.7735V18.768H16.3665V17.775H11.769V18.768H13.47V23.7735H14.661ZM20.355 17.775H21.6945L19.7835 20.7855L21.6645 23.7735H20.3025L19.0275 21.651H18.975L17.6955 23.7735H16.404L18.264 20.7495L16.422 17.775H17.8185L19.0665 19.9335H19.119L20.355 17.775Z" fill="#444444"/>
</svg>